<svg xmlns="http://www.w3.org/2000/svg" xmlns:xlink="http://www.w3.org/1999/xlink" width="151" zoomAndPan="magnify" viewBox="0 0 113.25 113.249996" height="151" preserveAspectRatio="xMidYMid meet" version="1.0"><defs><g/><clipPath id="93e820bbb9"><path d="M 0 0 L 112.503906 0 L 112.503906 112.503906 L 0 112.503906 Z M 0 0 " clip-rule="nonzero"/></clipPath><clipPath id="bf5e1d46a7"><path d="M 27.277344 48.851562 L 43.382812 48.851562 L 43.382812 63.59375 L 27.277344 63.59375 Z M 27.277344 48.851562 " clip-rule="nonzero"/></clipPath><clipPath id="e013a79381"><path d="M 36.097656 58.117188 L 43.382812 58.117188 L 43.382812 63.789062 L 36.097656 63.789062 Z M 36.097656 58.117188 " clip-rule="nonzero"/></clipPath></defs><g clip-path="url(#93e820bbb9)"><path fill="#ffffff" d="M 0 0 L 112.503906 0 L 112.503906 112.503906 L 0 112.503906 Z M 0 0 " fill-opacity="1" fill-rule="nonzero"/><path fill="#5e17eb" d="M 0 0 L 112.503906 0 L 112.503906 112.503906 L 0 112.503906 Z M 0 0 " fill-opacity="1" fill-rule="nonzero"/></g><g clip-path="url(#bf5e1d46a7)"><path fill="#ffffff" d="M 39.285156 59.363281 C 40.585938 61.207031 41.910156 62.179688 43.382812 63.492188 C 39.980469 63.589844 37.789062 62.835938 36.796875 61.230469 C 36.757812 61.164062 36.71875 61.09375 36.679688 61.023438 C 36.253906 60.183594 36.164062 59.1875 37.121094 58.585938 C 38.277344 57.851562 38.53125 58.296875 39.285156 59.363281 Z M 34.613281 55.953125 C 34.402344 55.964844 34.222656 55.800781 34.210938 55.585938 C 34.199219 55.371094 34.367188 55.195312 34.578125 55.183594 C 34.792969 55.171875 34.972656 55.335938 34.980469 55.550781 C 34.992188 55.765625 34.828125 55.945312 34.613281 55.953125 Z M 41.199219 52.996094 C 40.011719 50.542969 37.503906 48.851562 34.597656 48.851562 C 32.582031 48.851562 30.753906 49.667969 29.429688 50.988281 C 28.101562 52.3125 27.277344 54.144531 27.277344 56.175781 C 27.277344 58.199219 28.101562 60.035156 29.429688 61.359375 C 30.753906 62.679688 32.578125 63.496094 34.597656 63.496094 C 35.175781 63.496094 35.734375 63.429688 36.273438 63.304688 C 34.824219 62.832031 33.339844 61.851562 32.871094 60.390625 C 32.578125 59.46875 32.601562 58.289062 32.941406 56.84375 C 33.152344 55.957031 32.929688 55.464844 32.015625 55.105469 C 32.792969 54.773438 33.054688 54.824219 33.417969 54.835938 C 34.003906 54.023438 35.292969 53.902344 36.175781 54.367188 C 36.917969 54.753906 37.085938 55.476562 37.367188 56.195312 C 37.8125 57.3125 38.324219 58.398438 39.59375 57.421875 C 41.175781 56.207031 42.179688 55.03125 41.199219 52.996094 Z M 41.199219 52.996094 " fill-opacity="1" fill-rule="evenodd"/></g><g clip-path="url(#e013a79381)"><path fill="#5e17eb" d="M 36.097656 58.117188 L 43.386719 58.117188 L 43.386719 63.789062 L 36.097656 63.789062 Z M 36.097656 58.117188 " fill-opacity="1" fill-rule="nonzero"/></g><g fill="#f8fafc" fill-opacity="1"><g transform="translate(43.38451, 60.124174)"><g><path d="M 4.8125 -5.234375 L 3.234375 -5.234375 L 3.234375 -2.34375 C 3.234375 -2.101562 3.289062 -1.925781 3.40625 -1.8125 C 3.53125 -1.695312 3.707031 -1.632812 3.9375 -1.625 C 4.175781 -1.613281 4.46875 -1.613281 4.8125 -1.625 L 4.8125 0 C 3.570312 0.132812 2.695312 0.0195312 2.1875 -0.34375 C 1.6875 -0.71875 1.4375 -1.382812 1.4375 -2.34375 L 1.4375 -5.234375 L 0.21875 -5.234375 L 0.21875 -6.96875 L 1.4375 -6.96875 L 1.4375 -8.375 L 3.234375 -8.921875 L 3.234375 -6.96875 L 4.8125 -6.96875 Z M 4.8125 -5.234375 "/></g></g></g><g fill="#f8fafc" fill-opacity="1"><g transform="translate(47.665243, 60.124174)"><g><path d="M 6.75 -0.875 C 6.039062 -0.164062 5.171875 0.1875 4.140625 0.1875 C 3.109375 0.1875 2.234375 -0.164062 1.515625 -0.875 C 0.804688 -1.582031 0.453125 -2.453125 0.453125 -3.484375 C 0.453125 -4.515625 0.804688 -5.382812 1.515625 -6.09375 C 2.234375 -6.800781 3.109375 -7.15625 4.140625 -7.15625 C 5.171875 -7.15625 6.039062 -6.800781 6.75 -6.09375 C 7.46875 -5.382812 7.828125 -4.515625 7.828125 -3.484375 C 7.828125 -2.453125 7.46875 -1.582031 6.75 -0.875 Z M 2.796875 -2.09375 C 3.148438 -1.738281 3.597656 -1.5625 4.140625 -1.5625 C 4.679688 -1.5625 5.128906 -1.738281 5.484375 -2.09375 C 5.847656 -2.457031 6.03125 -2.921875 6.03125 -3.484375 C 6.03125 -4.046875 5.847656 -4.503906 5.484375 -4.859375 C 5.128906 -5.222656 4.679688 -5.40625 4.140625 -5.40625 C 3.597656 -5.40625 3.148438 -5.222656 2.796875 -4.859375 C 2.441406 -4.503906 2.265625 -4.046875 2.265625 -3.484375 C 2.265625 -2.921875 2.441406 -2.457031 2.796875 -2.09375 Z M 2.796875 -2.09375 "/></g></g></g><g fill="#f8fafc" fill-opacity="1"><g transform="translate(54.860233, 60.124174)"><g><path d="M 6.75 -0.875 C 6.039062 -0.164062 5.171875 0.1875 4.140625 0.1875 C 3.109375 0.1875 2.234375 -0.164062 1.515625 -0.875 C 0.804688 -1.582031 0.453125 -2.453125 0.453125 -3.484375 C 0.453125 -4.515625 0.804688 -5.382812 1.515625 -6.09375 C 2.234375 -6.800781 3.109375 -7.15625 4.140625 -7.15625 C 5.171875 -7.15625 6.039062 -6.800781 6.75 -6.09375 C 7.46875 -5.382812 7.828125 -4.515625 7.828125 -3.484375 C 7.828125 -2.453125 7.46875 -1.582031 6.75 -0.875 Z M 2.796875 -2.09375 C 3.148438 -1.738281 3.597656 -1.5625 4.140625 -1.5625 C 4.679688 -1.5625 5.128906 -1.738281 5.484375 -2.09375 C 5.847656 -2.457031 6.03125 -2.921875 6.03125 -3.484375 C 6.03125 -4.046875 5.847656 -4.503906 5.484375 -4.859375 C 5.128906 -5.222656 4.679688 -5.40625 4.140625 -5.40625 C 3.597656 -5.40625 3.148438 -5.222656 2.796875 -4.859375 C 2.441406 -4.503906 2.265625 -4.046875 2.265625 -3.484375 C 2.265625 -2.921875 2.441406 -2.457031 2.796875 -2.09375 Z M 2.796875 -2.09375 "/></g></g></g><g fill="#f8fafc" fill-opacity="1"><g transform="translate(62.055222, 60.124174)"><g><path d="M 0.828125 0 L 0.828125 -10.171875 L 2.625 -10.171875 L 2.625 0 Z M 0.828125 0 "/></g></g></g><g fill="#f8fafc" fill-opacity="1"><g transform="translate(64.411709, 60.124174)"><g><path d="M 4.875 -7.15625 C 5.8125 -7.15625 6.613281 -6.800781 7.28125 -6.09375 C 7.945312 -5.382812 8.28125 -4.515625 8.28125 -3.484375 C 8.28125 -2.453125 7.945312 -1.582031 7.28125 -0.875 C 6.613281 -0.164062 5.8125 0.1875 4.875 0.1875 C 3.90625 0.1875 3.15625 -0.148438 2.625 -0.828125 L 2.625 0 L 0.828125 0 L 0.828125 -9.75 L 2.625 -9.75 L 2.625 -6.140625 C 3.15625 -6.816406 3.90625 -7.15625 4.875 -7.15625 Z M 3.15625 -2.0625 C 3.519531 -1.695312 3.976562 -1.515625 4.53125 -1.515625 C 5.09375 -1.515625 5.554688 -1.695312 5.921875 -2.0625 C 6.296875 -2.4375 6.484375 -2.910156 6.484375 -3.484375 C 6.484375 -4.054688 6.296875 -4.523438 5.921875 -4.890625 C 5.554688 -5.265625 5.09375 -5.453125 4.53125 -5.453125 C 3.976562 -5.453125 3.519531 -5.265625 3.15625 -4.890625 C 2.800781 -4.523438 2.625 -4.054688 2.625 -3.484375 C 2.625 -2.910156 2.800781 -2.4375 3.15625 -2.0625 Z M 3.15625 -2.0625 "/></g></g></g><g fill="#f8fafc" fill-opacity="1"><g transform="translate(72.052904, 60.124174)"><g><path d="M 1.71875 -7.8125 C 1.414062 -7.8125 1.15625 -7.914062 0.9375 -8.125 C 0.71875 -8.34375 0.609375 -8.601562 0.609375 -8.90625 C 0.609375 -9.207031 0.71875 -9.46875 0.9375 -9.6875 C 1.15625 -9.90625 1.414062 -10.015625 1.71875 -10.015625 C 2.019531 -10.015625 2.28125 -9.90625 2.5 -9.6875 C 2.71875 -9.46875 2.828125 -9.207031 2.828125 -8.90625 C 2.828125 -8.601562 2.71875 -8.34375 2.5 -8.125 C 2.28125 -7.914062 2.019531 -7.8125 1.71875 -7.8125 Z M 0.828125 0 L 0.828125 -6.96875 L 2.625 -6.96875 L 2.625 0 Z M 0.828125 0 "/></g></g></g><g fill="#f8fafc" fill-opacity="1"><g transform="translate(74.409391, 60.124174)"><g><path d="M 2.625 -5.765625 C 2.789062 -6.210938 3.066406 -6.546875 3.453125 -6.765625 C 3.835938 -6.992188 4.265625 -7.109375 4.734375 -7.109375 L 4.734375 -5.09375 C 4.191406 -5.164062 3.703125 -5.054688 3.265625 -4.765625 C 2.835938 -4.472656 2.625 -3.992188 2.625 -3.328125 L 2.625 0 L 0.828125 0 L 0.828125 -6.96875 L 2.625 -6.96875 Z M 2.625 -5.765625 "/></g></g></g><g fill="#f8fafc" fill-opacity="1"><g transform="translate(78.285754, 60.124174)"><g><path d="M 6.109375 -9.75 L 7.90625 -9.75 L 7.90625 0 L 6.109375 0 L 6.109375 -0.828125 C 5.578125 -0.148438 4.820312 0.1875 3.84375 0.1875 C 2.90625 0.1875 2.101562 -0.164062 1.4375 -0.875 C 0.78125 -1.582031 0.453125 -2.453125 0.453125 -3.484375 C 0.453125 -4.515625 0.78125 -5.382812 1.4375 -6.09375 C 2.101562 -6.800781 2.90625 -7.15625 3.84375 -7.15625 C 4.820312 -7.15625 5.578125 -6.816406 6.109375 -6.140625 Z M 2.796875 -2.0625 C 3.160156 -1.695312 3.617188 -1.515625 4.171875 -1.515625 C 4.734375 -1.515625 5.195312 -1.695312 5.5625 -2.0625 C 5.925781 -2.4375 6.109375 -2.910156 6.109375 -3.484375 C 6.109375 -4.054688 5.925781 -4.523438 5.5625 -4.890625 C 5.195312 -5.265625 4.734375 -5.453125 4.171875 -5.453125 C 3.617188 -5.453125 3.160156 -5.265625 2.796875 -4.890625 C 2.429688 -4.523438 2.25 -4.054688 2.25 -3.484375 C 2.25 -2.910156 2.429688 -2.4375 2.796875 -2.0625 Z M 2.796875 -2.0625 "/></g></g></g></svg>