<svg xmlns="http://www.w3.org/2000/svg" xmlns:xlink="http://www.w3.org/1999/xlink" width="151" zoomAndPan="magnify" viewBox="0 0 113.25 113.249996" height="151" preserveAspectRatio="xMidYMid meet" version="1.0"><defs><g/><clipPath id="5798f83dc0"><path d="M 0 0 L 112.503906 0 L 112.503906 112.503906 L 0 112.503906 Z M 0 0 " clip-rule="nonzero"/></clipPath><clipPath id="66a8b61fa3"><path d="M 28.160156 51.652344 L 41.605469 51.652344 L 41.605469 63.960938 L 28.160156 63.960938 Z M 28.160156 51.652344 " clip-rule="nonzero"/></clipPath><clipPath id="9fabf787a2"><path d="M 35.738281 59.476562 L 41.605469 59.476562 L 41.605469 63.957031 L 35.738281 63.957031 Z M 35.738281 59.476562 " clip-rule="nonzero"/></clipPath></defs><g clip-path="url(#5798f83dc0)"><path fill="#ffffff" d="M 0 0 L 112.503906 0 L 112.503906 112.503906 L 0 112.503906 Z M 0 0 " fill-opacity="1" fill-rule="nonzero"/><path fill="#1f2937" d="M 0 0 L 112.503906 0 L 112.503906 112.503906 L 0 112.503906 Z M 0 0 " fill-opacity="1" fill-rule="nonzero"/></g><g clip-path="url(#66a8b61fa3)"><path fill="#ffffff" d="M 38.183594 60.429688 C 39.269531 61.96875 40.375 62.78125 41.605469 63.878906 C 38.765625 63.957031 36.933594 63.328125 36.109375 61.988281 C 36.074219 61.933594 36.042969 61.875 36.011719 61.816406 C 35.652344 61.113281 35.578125 60.28125 36.375 59.777344 C 37.34375 59.167969 37.554688 59.539062 38.183594 60.429688 Z M 34.285156 57.582031 C 34.105469 57.589844 33.957031 57.453125 33.949219 57.273438 C 33.941406 57.097656 34.078125 56.949219 34.257812 56.9375 C 34.433594 56.929688 34.582031 57.066406 34.59375 57.246094 C 34.601562 57.425781 34.464844 57.574219 34.285156 57.582031 Z M 39.78125 55.113281 C 38.792969 53.066406 36.699219 51.652344 34.269531 51.652344 C 32.589844 51.652344 31.0625 52.335938 29.957031 53.4375 C 28.847656 54.542969 28.160156 56.074219 28.160156 57.765625 C 28.160156 59.457031 28.847656 60.988281 29.957031 62.09375 C 31.0625 63.199219 32.585938 63.878906 34.269531 63.878906 C 34.753906 63.878906 35.222656 63.824219 35.667969 63.71875 C 34.460938 63.324219 33.21875 62.503906 32.832031 61.285156 C 32.585938 60.515625 32.605469 59.53125 32.890625 58.324219 C 33.066406 57.585938 32.878906 57.171875 32.113281 56.875 C 32.765625 56.597656 32.984375 56.640625 33.285156 56.648438 C 33.777344 55.96875 34.851562 55.867188 35.589844 56.257812 C 36.207031 56.582031 36.347656 57.183594 36.585938 57.785156 C 36.957031 58.71875 37.382812 59.625 38.441406 58.808594 C 39.765625 57.792969 40.601562 56.8125 39.78125 55.113281 Z M 39.78125 55.113281 " fill-opacity="1" fill-rule="evenodd"/></g><g clip-path="url(#9fabf787a2)"><path fill="#1f2937" d="M 35.738281 59.476562 L 41.601562 59.476562 L 41.601562 63.957031 L 35.738281 63.957031 Z M 35.738281 59.476562 " fill-opacity="1" fill-rule="nonzero"/></g><g fill="#ffffff" fill-opacity="1"><g transform="translate(41.607078, 61.500053)"><g><path d="M 4.3125 -4.78125 L 2.703125 -4.78125 L 2.703125 -2.328125 C 2.703125 -1.953125 2.804688 -1.675781 3.015625 -1.5 C 3.222656 -1.320312 3.503906 -1.234375 3.859375 -1.234375 C 4.035156 -1.234375 4.1875 -1.25 4.3125 -1.28125 L 4.3125 0 C 4.09375 0.0507812 3.84375 0.078125 3.5625 0.078125 C 2.875 0.078125 2.328125 -0.125 1.921875 -0.53125 C 1.515625 -0.945312 1.3125 -1.535156 1.3125 -2.296875 L 1.3125 -4.78125 L 0.15625 -4.78125 L 0.15625 -6.109375 L 1.3125 -6.109375 L 1.3125 -7.734375 L 2.703125 -7.734375 L 2.703125 -6.109375 L 4.3125 -6.109375 Z M 4.3125 -4.78125 "/></g></g></g><g fill="#ffffff" fill-opacity="1"><g transform="translate(45.297655, 61.500053)"><g><path d="M 1.328125 -5.3125 C 1.941406 -5.925781 2.691406 -6.234375 3.578125 -6.234375 C 4.472656 -6.234375 5.222656 -5.925781 5.828125 -5.3125 C 6.441406 -4.707031 6.75 -3.953125 6.75 -3.046875 C 6.75 -2.140625 6.441406 -1.382812 5.828125 -0.78125 C 5.222656 -0.175781 4.472656 0.125 3.578125 0.125 C 2.691406 0.125 1.941406 -0.175781 1.328125 -0.78125 C 0.722656 -1.382812 0.421875 -2.140625 0.421875 -3.046875 C 0.421875 -3.953125 0.722656 -4.707031 1.328125 -5.3125 Z M 4.859375 -4.359375 C 4.515625 -4.710938 4.085938 -4.890625 3.578125 -4.890625 C 3.078125 -4.890625 2.65625 -4.710938 2.3125 -4.359375 C 1.96875 -4.003906 1.796875 -3.566406 1.796875 -3.046875 C 1.796875 -2.523438 1.96875 -2.085938 2.3125 -1.734375 C 2.65625 -1.390625 3.078125 -1.21875 3.578125 -1.21875 C 4.085938 -1.21875 4.515625 -1.394531 4.859375 -1.75 C 5.203125 -2.101562 5.375 -2.535156 5.375 -3.046875 C 5.375 -3.566406 5.203125 -4.003906 4.859375 -4.359375 Z M 4.859375 -4.359375 "/></g></g></g><g fill="#ffffff" fill-opacity="1"><g transform="translate(51.500433, 61.500053)"><g><path d="M 1.328125 -5.3125 C 1.941406 -5.925781 2.691406 -6.234375 3.578125 -6.234375 C 4.472656 -6.234375 5.222656 -5.925781 5.828125 -5.3125 C 6.441406 -4.707031 6.75 -3.953125 6.75 -3.046875 C 6.75 -2.140625 6.441406 -1.382812 5.828125 -0.78125 C 5.222656 -0.175781 4.472656 0.125 3.578125 0.125 C 2.691406 0.125 1.941406 -0.175781 1.328125 -0.78125 C 0.722656 -1.382812 0.421875 -2.140625 0.421875 -3.046875 C 0.421875 -3.953125 0.722656 -4.707031 1.328125 -5.3125 Z M 4.859375 -4.359375 C 4.515625 -4.710938 4.085938 -4.890625 3.578125 -4.890625 C 3.078125 -4.890625 2.65625 -4.710938 2.3125 -4.359375 C 1.96875 -4.003906 1.796875 -3.566406 1.796875 -3.046875 C 1.796875 -2.523438 1.96875 -2.085938 2.3125 -1.734375 C 2.65625 -1.390625 3.078125 -1.21875 3.578125 -1.21875 C 4.085938 -1.21875 4.515625 -1.394531 4.859375 -1.75 C 5.203125 -2.101562 5.375 -2.535156 5.375 -3.046875 C 5.375 -3.566406 5.203125 -4.003906 4.859375 -4.359375 Z M 4.859375 -4.359375 "/></g></g></g><g fill="#ffffff" fill-opacity="1"><g transform="translate(57.703213, 61.500053)"><g><path d="M 2.125 -8.734375 L 2.125 0 L 0.734375 0 L 0.734375 -8.734375 Z M 2.125 -8.734375 "/></g></g></g><g fill="#ffffff" fill-opacity="1"><g transform="translate(59.582808, 61.500053)"><g><path d="M 4.296875 -6.234375 C 5.109375 -6.234375 5.796875 -5.925781 6.359375 -5.3125 C 6.921875 -4.695312 7.203125 -3.945312 7.203125 -3.0625 C 7.203125 -2.476562 7.070312 -1.941406 6.8125 -1.453125 C 6.5625 -0.972656 6.210938 -0.585938 5.765625 -0.296875 C 5.316406 -0.015625 4.828125 0.125 4.296875 0.125 C 3.804688 0.125 3.375 0.0195312 3 -0.1875 C 2.632812 -0.40625 2.34375 -0.707031 2.125 -1.09375 L 2.125 0 L 0.734375 0 L 0.734375 -8.734375 L 2.125 -8.734375 L 2.125 -5 C 2.34375 -5.394531 2.632812 -5.695312 3 -5.90625 C 3.375 -6.125 3.804688 -6.234375 4.296875 -6.234375 Z M 4 -1.203125 C 4.507812 -1.203125 4.941406 -1.378906 5.296875 -1.734375 C 5.660156 -2.097656 5.84375 -2.539062 5.84375 -3.0625 C 5.84375 -3.570312 5.660156 -4.003906 5.296875 -4.359375 C 4.941406 -4.722656 4.507812 -4.90625 4 -4.90625 C 3.457031 -4.90625 3.007812 -4.726562 2.65625 -4.375 C 2.300781 -4.019531 2.125 -3.582031 2.125 -3.0625 C 2.125 -2.53125 2.300781 -2.085938 2.65625 -1.734375 C 3.007812 -1.378906 3.457031 -1.203125 4 -1.203125 Z M 4 -1.203125 "/></g></g></g><g fill="#ffffff" fill-opacity="1"><g transform="translate(66.249003, 61.500053)"><g><path d="M 0.8125 -8.671875 C 0.988281 -8.847656 1.195312 -8.9375 1.4375 -8.9375 C 1.675781 -8.9375 1.882812 -8.847656 2.0625 -8.671875 C 2.238281 -8.492188 2.328125 -8.285156 2.328125 -8.046875 C 2.328125 -7.804688 2.238281 -7.597656 2.0625 -7.421875 C 1.882812 -7.242188 1.675781 -7.15625 1.4375 -7.15625 C 1.195312 -7.15625 0.988281 -7.242188 0.8125 -7.421875 C 0.632812 -7.597656 0.546875 -7.804688 0.546875 -8.046875 C 0.546875 -8.285156 0.632812 -8.492188 0.8125 -8.671875 Z M 0.734375 -6.109375 L 2.125 -6.109375 L 2.125 0 L 0.734375 0 Z M 0.734375 -6.109375 "/></g></g></g><g fill="#ffffff" fill-opacity="1"><g transform="translate(68.128599, 61.500053)"><g><path d="M 3.765625 -6.234375 C 3.898438 -6.234375 4.09375 -6.207031 4.34375 -6.15625 L 4.34375 -4.875 C 4.113281 -4.9375 3.910156 -4.96875 3.734375 -4.96875 C 3.273438 -4.96875 2.890625 -4.8125 2.578125 -4.5 C 2.273438 -4.195312 2.125 -3.785156 2.125 -3.265625 L 2.125 0 L 0.734375 0 L 0.734375 -6.109375 L 2.125 -6.109375 L 2.125 -5.296875 C 2.507812 -5.921875 3.054688 -6.234375 3.765625 -6.234375 Z M 3.765625 -6.234375 "/></g></g></g><g fill="#ffffff" fill-opacity="1"><g transform="translate(71.758199, 61.500053)"><g><path d="M 5.5 -8.734375 L 6.90625 -8.734375 L 6.90625 0 L 5.5 0 L 5.5 -1.078125 C 5.28125 -0.691406 4.988281 -0.394531 4.625 -0.1875 C 4.257812 0.0195312 3.832031 0.125 3.34375 0.125 C 2.8125 0.125 2.320312 -0.015625 1.875 -0.296875 C 1.425781 -0.578125 1.070312 -0.960938 0.8125 -1.453125 C 0.550781 -1.941406 0.421875 -2.472656 0.421875 -3.046875 C 0.421875 -3.628906 0.550781 -4.164062 0.8125 -4.65625 C 1.070312 -5.144531 1.425781 -5.53125 1.875 -5.8125 C 2.320312 -6.09375 2.8125 -6.234375 3.34375 -6.234375 C 3.832031 -6.234375 4.257812 -6.128906 4.625 -5.921875 C 4.988281 -5.710938 5.28125 -5.414062 5.5 -5.03125 Z M 3.640625 -1.203125 C 4.171875 -1.203125 4.613281 -1.378906 4.96875 -1.734375 C 5.320312 -2.085938 5.5 -2.53125 5.5 -3.0625 C 5.5 -3.582031 5.320312 -4.019531 4.96875 -4.375 C 4.613281 -4.726562 4.171875 -4.90625 3.640625 -4.90625 C 3.128906 -4.90625 2.691406 -4.722656 2.328125 -4.359375 C 1.972656 -4.003906 1.796875 -3.570312 1.796875 -3.0625 C 1.796875 -2.539062 1.972656 -2.097656 2.328125 -1.734375 C 2.691406 -1.378906 3.128906 -1.203125 3.640625 -1.203125 Z M 3.640625 -1.203125 "/></g></g></g></svg>