<svg xmlns="http://www.w3.org/2000/svg" xmlns:xlink="http://www.w3.org/1999/xlink" width="151" zoomAndPan="magnify" viewBox="0 0 113.25 113.249996" height="151" preserveAspectRatio="xMidYMid meet" version="1.0"><defs><g/><clipPath id="ad27e4ac7e"><path d="M 0 0 L 112.503906 0 L 112.503906 112.503906 L 0 112.503906 Z M 0 0 " clip-rule="nonzero"/></clipPath><clipPath id="1df253cb6a"><path d="M 26.070312 49.242188 L 42.089844 49.242188 L 42.089844 63.902344 L 26.070312 63.902344 Z M 26.070312 49.242188 " clip-rule="nonzero"/></clipPath><clipPath id="6e02f04919"><path d="M 34.84375 58.460938 L 42.089844 58.460938 L 42.089844 64.097656 L 34.84375 64.097656 Z M 34.84375 58.460938 " clip-rule="nonzero"/></clipPath></defs><g clip-path="url(#ad27e4ac7e)"><path fill="#ffffff" d="M 0 0 L 112.503906 0 L 112.503906 112.503906 L 0 112.503906 Z M 0 0 " fill-opacity="1" fill-rule="nonzero"/><path fill="#f8fafc" d="M 0 0 L 112.503906 0 L 112.503906 112.503906 L 0 112.503906 Z M 0 0 " fill-opacity="1" fill-rule="nonzero"/></g><g clip-path="url(#1df253cb6a)"><path fill="#1f2937" d="M 38.011719 59.695312 C 39.304688 61.53125 40.621094 62.5 42.089844 63.804688 C 38.707031 63.898438 36.523438 63.152344 35.539062 61.554688 C 35.5 61.488281 35.460938 61.417969 35.421875 61.347656 C 34.996094 60.511719 34.90625 59.523438 35.859375 58.921875 C 37.011719 58.195312 37.261719 58.636719 38.011719 59.695312 Z M 33.367188 56.304688 C 33.152344 56.316406 32.976562 56.152344 32.964844 55.941406 C 32.957031 55.726562 33.121094 55.550781 33.332031 55.539062 C 33.542969 55.527344 33.722656 55.691406 33.734375 55.90625 C 33.742188 56.117188 33.578125 56.296875 33.367188 56.304688 Z M 39.914062 53.363281 C 38.738281 50.925781 36.242188 49.242188 33.347656 49.242188 C 31.34375 49.242188 29.527344 50.054688 28.207031 51.367188 C 26.886719 52.683594 26.070312 54.507812 26.070312 56.523438 C 26.070312 58.539062 26.886719 60.367188 28.207031 61.683594 C 29.527344 62.996094 31.339844 63.808594 33.347656 63.808594 C 33.925781 63.808594 34.480469 63.742188 35.015625 63.617188 C 33.574219 63.148438 32.097656 62.171875 31.632812 60.71875 C 31.339844 59.800781 31.367188 58.625 31.703125 57.191406 C 31.914062 56.308594 31.691406 55.816406 30.78125 55.460938 C 31.554688 55.132812 31.816406 55.183594 32.175781 55.195312 C 32.761719 54.386719 34.042969 54.261719 34.921875 54.726562 C 35.65625 55.113281 35.824219 55.832031 36.105469 56.546875 C 36.546875 57.65625 37.058594 58.738281 38.320312 57.765625 C 39.894531 56.554688 40.890625 55.390625 39.914062 53.363281 Z M 39.914062 53.363281 " fill-opacity="1" fill-rule="evenodd"/></g><g clip-path="url(#6e02f04919)"><path fill="#f8fafc" d="M 34.84375 58.460938 L 42.089844 58.460938 L 42.089844 64.097656 L 34.84375 64.097656 Z M 34.84375 58.460938 " fill-opacity="1" fill-rule="nonzero"/></g><g fill="#1f2937" fill-opacity="1"><g transform="translate(42.090272, 60.453612)"><g><path d="M 4.78125 -5.21875 L 3.21875 -5.21875 L 3.21875 -2.328125 C 3.21875 -2.085938 3.273438 -1.910156 3.390625 -1.796875 C 3.515625 -1.691406 3.691406 -1.628906 3.921875 -1.609375 C 4.160156 -1.597656 4.445312 -1.601562 4.78125 -1.625 L 4.78125 0 C 3.550781 0.132812 2.679688 0.0195312 2.171875 -0.34375 C 1.671875 -0.71875 1.421875 -1.378906 1.421875 -2.328125 L 1.421875 -5.21875 L 0.21875 -5.21875 L 0.21875 -6.9375 L 1.421875 -6.9375 L 1.421875 -8.34375 L 3.21875 -8.875 L 3.21875 -6.9375 L 4.78125 -6.9375 Z M 4.78125 -5.21875 "/></g></g></g><g fill="#1f2937" fill-opacity="1"><g transform="translate(46.348329, 60.453612)"><g><path d="M 6.71875 -0.859375 C 6.007812 -0.160156 5.140625 0.1875 4.109375 0.1875 C 3.085938 0.1875 2.222656 -0.160156 1.515625 -0.859375 C 0.804688 -1.566406 0.453125 -2.4375 0.453125 -3.46875 C 0.453125 -4.5 0.804688 -5.363281 1.515625 -6.0625 C 2.222656 -6.769531 3.085938 -7.125 4.109375 -7.125 C 5.140625 -7.125 6.007812 -6.769531 6.71875 -6.0625 C 7.4375 -5.363281 7.796875 -4.5 7.796875 -3.46875 C 7.796875 -2.4375 7.4375 -1.566406 6.71875 -0.859375 Z M 2.78125 -2.09375 C 3.132812 -1.726562 3.578125 -1.546875 4.109375 -1.546875 C 4.648438 -1.546875 5.101562 -1.726562 5.46875 -2.09375 C 5.832031 -2.457031 6.015625 -2.914062 6.015625 -3.46875 C 6.015625 -4.019531 5.832031 -4.476562 5.46875 -4.84375 C 5.101562 -5.207031 4.648438 -5.390625 4.109375 -5.390625 C 3.578125 -5.390625 3.132812 -5.207031 2.78125 -4.84375 C 2.425781 -4.476562 2.25 -4.019531 2.25 -3.46875 C 2.25 -2.914062 2.425781 -2.457031 2.78125 -2.09375 Z M 2.78125 -2.09375 "/></g></g></g><g fill="#1f2937" fill-opacity="1"><g transform="translate(53.505206, 60.453612)"><g><path d="M 6.71875 -0.859375 C 6.007812 -0.160156 5.140625 0.1875 4.109375 0.1875 C 3.085938 0.1875 2.222656 -0.160156 1.515625 -0.859375 C 0.804688 -1.566406 0.453125 -2.4375 0.453125 -3.46875 C 0.453125 -4.5 0.804688 -5.363281 1.515625 -6.0625 C 2.222656 -6.769531 3.085938 -7.125 4.109375 -7.125 C 5.140625 -7.125 6.007812 -6.769531 6.71875 -6.0625 C 7.4375 -5.363281 7.796875 -4.5 7.796875 -3.46875 C 7.796875 -2.4375 7.4375 -1.566406 6.71875 -0.859375 Z M 2.78125 -2.09375 C 3.132812 -1.726562 3.578125 -1.546875 4.109375 -1.546875 C 4.648438 -1.546875 5.101562 -1.726562 5.46875 -2.09375 C 5.832031 -2.457031 6.015625 -2.914062 6.015625 -3.46875 C 6.015625 -4.019531 5.832031 -4.476562 5.46875 -4.84375 C 5.101562 -5.207031 4.648438 -5.390625 4.109375 -5.390625 C 3.578125 -5.390625 3.132812 -5.207031 2.78125 -4.84375 C 2.425781 -4.476562 2.25 -4.019531 2.25 -3.46875 C 2.25 -2.914062 2.425781 -2.457031 2.78125 -2.09375 Z M 2.78125 -2.09375 "/></g></g></g><g fill="#1f2937" fill-opacity="1"><g transform="translate(60.662083, 60.453612)"><g><path d="M 0.8125 0 L 0.8125 -10.125 L 2.609375 -10.125 L 2.609375 0 Z M 0.8125 0 "/></g></g></g><g fill="#1f2937" fill-opacity="1"><g transform="translate(63.006087, 60.453612)"><g><path d="M 4.859375 -7.125 C 5.785156 -7.125 6.578125 -6.769531 7.234375 -6.0625 C 7.898438 -5.363281 8.234375 -4.5 8.234375 -3.46875 C 8.234375 -2.4375 7.898438 -1.566406 7.234375 -0.859375 C 6.578125 -0.160156 5.785156 0.1875 4.859375 0.1875 C 3.890625 0.1875 3.140625 -0.144531 2.609375 -0.8125 L 2.609375 0 L 0.8125 0 L 0.8125 -9.71875 L 2.609375 -9.71875 L 2.609375 -6.125 C 3.140625 -6.789062 3.890625 -7.125 4.859375 -7.125 Z M 3.140625 -2.0625 C 3.503906 -1.695312 3.960938 -1.515625 4.515625 -1.515625 C 5.078125 -1.515625 5.539062 -1.695312 5.90625 -2.0625 C 6.269531 -2.425781 6.453125 -2.894531 6.453125 -3.46875 C 6.453125 -4.039062 6.269531 -4.507812 5.90625 -4.875 C 5.539062 -5.238281 5.078125 -5.421875 4.515625 -5.421875 C 3.960938 -5.421875 3.503906 -5.238281 3.140625 -4.875 C 2.785156 -4.507812 2.609375 -4.039062 2.609375 -3.46875 C 2.609375 -2.894531 2.785156 -2.425781 3.140625 -2.0625 Z M 3.140625 -2.0625 "/></g></g></g><g fill="#1f2937" fill-opacity="1"><g transform="translate(70.606805, 60.453612)"><g><path d="M 1.703125 -7.765625 C 1.410156 -7.765625 1.15625 -7.875 0.9375 -8.09375 C 0.71875 -8.3125 0.609375 -8.566406 0.609375 -8.859375 C 0.609375 -9.160156 0.71875 -9.421875 0.9375 -9.640625 C 1.15625 -9.859375 1.410156 -9.96875 1.703125 -9.96875 C 2.015625 -9.96875 2.273438 -9.859375 2.484375 -9.640625 C 2.703125 -9.421875 2.8125 -9.160156 2.8125 -8.859375 C 2.8125 -8.566406 2.703125 -8.3125 2.484375 -8.09375 C 2.273438 -7.875 2.015625 -7.765625 1.703125 -7.765625 Z M 0.8125 0 L 0.8125 -6.9375 L 2.609375 -6.9375 L 2.609375 0 Z M 0.8125 0 "/></g></g></g><g fill="#1f2937" fill-opacity="1"><g transform="translate(72.950809, 60.453612)"><g><path d="M 2.609375 -5.75 C 2.773438 -6.1875 3.050781 -6.515625 3.4375 -6.734375 C 3.820312 -6.960938 4.25 -7.078125 4.71875 -7.078125 L 4.71875 -5.078125 C 4.175781 -5.140625 3.6875 -5.023438 3.25 -4.734375 C 2.820312 -4.453125 2.609375 -3.976562 2.609375 -3.3125 L 2.609375 0 L 0.8125 0 L 0.8125 -6.9375 L 2.609375 -6.9375 Z M 2.609375 -5.75 "/></g></g></g><g fill="#1f2937" fill-opacity="1"><g transform="translate(76.806639, 60.453612)"><g><path d="M 6.078125 -9.71875 L 7.859375 -9.71875 L 7.859375 0 L 6.078125 0 L 6.078125 -0.8125 C 5.546875 -0.144531 4.796875 0.1875 3.828125 0.1875 C 2.890625 0.1875 2.085938 -0.160156 1.421875 -0.859375 C 0.765625 -1.566406 0.4375 -2.4375 0.4375 -3.46875 C 0.4375 -4.5 0.765625 -5.363281 1.421875 -6.0625 C 2.085938 -6.769531 2.890625 -7.125 3.828125 -7.125 C 4.796875 -7.125 5.546875 -6.789062 6.078125 -6.125 Z M 2.78125 -2.0625 C 3.144531 -1.695312 3.601562 -1.515625 4.15625 -1.515625 C 4.71875 -1.515625 5.175781 -1.695312 5.53125 -2.0625 C 5.894531 -2.425781 6.078125 -2.894531 6.078125 -3.46875 C 6.078125 -4.039062 5.894531 -4.507812 5.53125 -4.875 C 5.175781 -5.238281 4.71875 -5.421875 4.15625 -5.421875 C 3.601562 -5.421875 3.144531 -5.238281 2.78125 -4.875 C 2.414062 -4.507812 2.234375 -4.039062 2.234375 -3.46875 C 2.234375 -2.894531 2.414062 -2.425781 2.78125 -2.0625 Z M 2.78125 -2.0625 "/></g></g></g><g fill="#5e17eb" fill-opacity="1"><g transform="translate(59.765985, 69.452678)"><g><path d="M 3.734375 -3.171875 C 3.785156 -3.097656 3.8125 -3.023438 3.8125 -2.953125 C 3.8125 -2.847656 3.773438 -2.742188 3.703125 -2.640625 C 3.679688 -2.597656 3.644531 -2.539062 3.59375 -2.46875 C 3.539062 -2.40625 3.492188 -2.335938 3.453125 -2.265625 C 3.421875 -2.191406 3.394531 -2.109375 3.375 -2.015625 C 3.363281 -1.859375 3.300781 -1.523438 3.1875 -1.015625 L 3.09375 -0.625 L 2.953125 0.015625 C 2.691406 1.054688 2.414062 1.660156 2.125 1.828125 C 2.039062 1.859375 1.957031 1.875 1.875 1.875 C 1.726562 1.882812 1.570312 1.84375 1.40625 1.75 C 1.25 1.664062 1.113281 1.546875 1 1.390625 C 0.925781 1.296875 0.851562 1.144531 0.78125 0.9375 C 0.71875 0.738281 0.703125 0.625 0.734375 0.59375 C 0.753906 0.582031 0.78125 0.578125 0.8125 0.578125 C 0.851562 0.578125 0.898438 0.585938 0.953125 0.609375 C 1.015625 0.640625 1.050781 0.675781 1.0625 0.71875 C 1.082031 0.789062 1.140625 0.882812 1.234375 1 C 1.328125 1.125 1.394531 1.1875 1.4375 1.1875 C 1.539062 1.226562 1.628906 1.25 1.703125 1.25 C 1.765625 1.25 1.820312 1.226562 1.875 1.1875 C 1.976562 1.09375 2.066406 0.972656 2.140625 0.828125 C 2.210938 0.691406 2.289062 0.472656 2.375 0.171875 L 2.4375 -0.109375 C 2.582031 -0.710938 2.6875 -1.097656 2.75 -1.265625 C 2.78125 -1.367188 2.804688 -1.453125 2.828125 -1.515625 L 2.65625 -1.359375 C 2.582031 -1.285156 2.503906 -1.210938 2.421875 -1.140625 C 2.335938 -1.066406 2.25 -1.003906 2.15625 -0.953125 C 2.113281 -0.898438 2 -0.875 1.8125 -0.875 C 1.675781 -0.863281 1.539062 -0.875 1.40625 -0.90625 C 1.269531 -0.96875 1.179688 -1.019531 1.140625 -1.0625 C 1.097656 -1.101562 1.050781 -1.195312 1 -1.34375 C 0.96875 -1.394531 0.945312 -1.476562 0.9375 -1.59375 C 0.925781 -1.882812 0.984375 -2.191406 1.109375 -2.515625 C 1.222656 -2.773438 1.410156 -3.054688 1.671875 -3.359375 C 1.929688 -3.671875 2.160156 -3.859375 2.359375 -3.921875 C 2.429688 -3.972656 2.503906 -4 2.578125 -4 C 2.648438 -4 2.722656 -3.984375 2.796875 -3.953125 C 2.910156 -3.953125 3 -3.9375 3.0625 -3.90625 C 3.125 -3.875 3.226562 -3.800781 3.375 -3.6875 C 3.539062 -3.53125 3.660156 -3.359375 3.734375 -3.171875 Z M 2.6875 -2.140625 C 2.789062 -2.296875 2.859375 -2.460938 2.890625 -2.640625 C 2.929688 -2.828125 2.941406 -3.003906 2.921875 -3.171875 C 2.921875 -3.265625 2.910156 -3.328125 2.890625 -3.359375 C 2.867188 -3.390625 2.832031 -3.40625 2.78125 -3.40625 C 2.644531 -3.40625 2.492188 -3.34375 2.328125 -3.21875 C 2.171875 -3.09375 2.019531 -2.929688 1.875 -2.734375 C 1.78125 -2.597656 1.707031 -2.429688 1.65625 -2.234375 C 1.570312 -2.003906 1.535156 -1.796875 1.546875 -1.609375 C 1.554688 -1.453125 1.585938 -1.367188 1.640625 -1.359375 C 1.847656 -1.367188 2.035156 -1.429688 2.203125 -1.546875 C 2.367188 -1.671875 2.53125 -1.867188 2.6875 -2.140625 Z M 2.6875 -2.140625 "/></g></g></g><g fill="#5e17eb" fill-opacity="1"><g transform="translate(63.315073, 69.313358)"><g><path d="M 3.390625 -0.15625 C 3.222656 -0.300781 3.09375 -0.523438 3 -0.828125 C 2.988281 -0.867188 2.976562 -0.9375 2.96875 -1.03125 C 2.96875 -1.132812 2.96875 -1.207031 2.96875 -1.25 C 2.9375 -1.132812 2.867188 -1.035156 2.765625 -0.953125 C 2.609375 -0.796875 2.457031 -0.679688 2.3125 -0.609375 C 2.082031 -0.441406 1.894531 -0.351562 1.75 -0.34375 C 1.613281 -0.34375 1.484375 -0.410156 1.359375 -0.546875 C 1.265625 -0.617188 1.195312 -0.691406 1.15625 -0.765625 C 1.113281 -0.835938 1.09375 -0.925781 1.09375 -1.03125 C 1.082031 -1.101562 1.085938 -1.1875 1.109375 -1.28125 C 1.109375 -1.519531 1.128906 -1.753906 1.171875 -1.984375 C 1.222656 -2.210938 1.320312 -2.507812 1.46875 -2.875 C 1.664062 -3.300781 1.8125 -3.585938 1.90625 -3.734375 C 1.9375 -3.742188 1.976562 -3.75 2.03125 -3.75 C 2.09375 -3.757812 2.144531 -3.742188 2.1875 -3.703125 C 2.238281 -3.660156 2.265625 -3.609375 2.265625 -3.546875 C 2.285156 -3.515625 2.300781 -3.476562 2.3125 -3.4375 C 2.3125 -3.269531 2.222656 -2.988281 2.046875 -2.59375 C 1.804688 -1.957031 1.691406 -1.519531 1.703125 -1.28125 C 1.703125 -1.144531 1.75 -1.066406 1.84375 -1.046875 C 1.875 -1.023438 1.910156 -1.015625 1.953125 -1.015625 C 2.117188 -1.023438 2.3125 -1.144531 2.53125 -1.375 C 2.757812 -1.613281 2.96875 -1.988281 3.15625 -2.5 C 3.238281 -2.726562 3.285156 -2.960938 3.296875 -3.203125 C 3.285156 -3.222656 3.28125 -3.253906 3.28125 -3.296875 C 3.28125 -3.421875 3.335938 -3.519531 3.453125 -3.59375 C 3.472656 -3.632812 3.503906 -3.664062 3.546875 -3.6875 C 3.597656 -3.707031 3.632812 -3.710938 3.65625 -3.703125 L 3.8125 -3.703125 C 3.832031 -3.710938 3.851562 -3.695312 3.875 -3.65625 C 3.894531 -3.613281 3.910156 -3.582031 3.921875 -3.5625 C 3.984375 -3.519531 4.015625 -3.445312 4.015625 -3.34375 C 4.023438 -3.125 3.941406 -2.789062 3.765625 -2.34375 C 3.648438 -2.0625 3.570312 -1.847656 3.53125 -1.703125 C 3.5 -1.554688 3.476562 -1.421875 3.46875 -1.296875 C 3.476562 -1.035156 3.585938 -0.828125 3.796875 -0.671875 C 3.859375 -0.628906 3.894531 -0.582031 3.90625 -0.53125 C 3.925781 -0.476562 3.9375 -0.40625 3.9375 -0.3125 C 3.925781 -0.25 3.890625 -0.195312 3.828125 -0.15625 C 3.765625 -0.113281 3.695312 -0.09375 3.625 -0.09375 C 3.53125 -0.09375 3.453125 -0.113281 3.390625 -0.15625 Z M 3.390625 -0.15625 "/></g></g></g><g fill="#5e17eb" fill-opacity="1"><g transform="translate(67.014123, 69.168151)"><g><path d="M 1.90625 -4.453125 C 1.863281 -4.503906 1.820312 -4.585938 1.78125 -4.703125 C 1.738281 -4.816406 1.734375 -4.875 1.765625 -4.875 C 1.828125 -4.875 1.890625 -4.929688 1.953125 -5.046875 C 2.015625 -5.160156 2.039062 -5.253906 2.03125 -5.328125 C 2.03125 -5.359375 2.039062 -5.382812 2.0625 -5.40625 C 2.082031 -5.425781 2.109375 -5.441406 2.140625 -5.453125 C 2.179688 -5.484375 2.222656 -5.5 2.265625 -5.5 C 2.378906 -5.507812 2.488281 -5.4375 2.59375 -5.28125 C 2.625 -5.195312 2.644531 -5.117188 2.65625 -5.046875 C 2.65625 -4.984375 2.640625 -4.921875 2.609375 -4.859375 C 2.578125 -4.796875 2.523438 -4.71875 2.453125 -4.625 C 2.335938 -4.457031 2.226562 -4.375 2.125 -4.375 C 2.0625 -4.375 1.988281 -4.398438 1.90625 -4.453125 Z M 1.09375 -0.359375 C 1 -0.441406 0.945312 -0.570312 0.9375 -0.75 C 0.9375 -0.84375 0.953125 -0.925781 0.984375 -1 C 0.972656 -1.039062 0.972656 -1.082031 0.984375 -1.125 C 1.003906 -1.175781 1.015625 -1.207031 1.015625 -1.21875 C 1.003906 -1.257812 1.023438 -1.367188 1.078125 -1.546875 C 1.179688 -1.816406 1.328125 -2.289062 1.515625 -2.96875 C 1.515625 -3 1.523438 -3.023438 1.546875 -3.046875 C 1.566406 -3.078125 1.601562 -3.097656 1.65625 -3.109375 C 1.707031 -3.128906 1.742188 -3.140625 1.765625 -3.140625 C 1.804688 -3.140625 1.84375 -3.125 1.875 -3.09375 C 1.914062 -3.0625 1.960938 -3.003906 2.015625 -2.921875 C 2.054688 -2.890625 2.078125 -2.832031 2.078125 -2.75 C 2.085938 -2.625 2.046875 -2.46875 1.953125 -2.28125 C 1.878906 -2.09375 1.832031 -1.925781 1.8125 -1.78125 C 1.738281 -1.59375 1.679688 -1.421875 1.640625 -1.265625 C 1.628906 -1.234375 1.613281 -1.15625 1.59375 -1.03125 C 1.570312 -0.914062 1.535156 -0.820312 1.484375 -0.75 C 1.453125 -0.5625 1.421875 -0.425781 1.390625 -0.34375 C 1.367188 -0.269531 1.335938 -0.234375 1.296875 -0.234375 C 1.253906 -0.234375 1.1875 -0.273438 1.09375 -0.359375 Z M 1.09375 -0.359375 "/></g></g></g><g fill="#5e17eb" fill-opacity="1"><g transform="translate(68.883644, 69.094763)"><g><path d="M 3.625 0.046875 C 3.46875 0.0976562 3.351562 0.03125 3.28125 -0.15625 C 3.175781 -0.414062 3.117188 -0.6875 3.109375 -0.96875 C 3.109375 -1.050781 3.109375 -1.109375 3.109375 -1.140625 L 3.125 -1.359375 L 2.75 -1.03125 C 2.53125 -0.832031 2.316406 -0.679688 2.109375 -0.578125 C 1.910156 -0.484375 1.722656 -0.429688 1.546875 -0.421875 C 1.441406 -0.441406 1.332031 -0.488281 1.21875 -0.5625 C 1.113281 -0.632812 1.035156 -0.722656 0.984375 -0.828125 C 0.960938 -0.867188 0.945312 -0.941406 0.9375 -1.046875 C 0.9375 -1.296875 0.992188 -1.59375 1.109375 -1.9375 C 1.222656 -2.28125 1.378906 -2.566406 1.578125 -2.796875 C 1.847656 -3.234375 2.160156 -3.460938 2.515625 -3.484375 C 2.679688 -3.484375 2.847656 -3.441406 3.015625 -3.359375 C 3.179688 -3.296875 3.28125 -3.265625 3.3125 -3.265625 C 3.34375 -3.265625 3.367188 -3.28125 3.390625 -3.3125 C 3.410156 -3.351562 3.429688 -3.414062 3.453125 -3.5 C 3.503906 -3.800781 3.566406 -4.0625 3.640625 -4.28125 C 3.765625 -4.726562 3.875 -5.085938 3.96875 -5.359375 C 4.0625 -5.628906 4.179688 -5.921875 4.328125 -6.234375 C 4.378906 -6.390625 4.429688 -6.488281 4.484375 -6.53125 C 4.535156 -6.570312 4.59375 -6.59375 4.65625 -6.59375 C 4.800781 -6.601562 4.914062 -6.503906 5 -6.296875 C 5.019531 -6.253906 5.03125 -6.207031 5.03125 -6.15625 C 5.03125 -6.113281 5.015625 -6.050781 4.984375 -5.96875 C 4.828125 -5.65625 4.632812 -5.15625 4.40625 -4.46875 C 4.175781 -3.789062 4.003906 -3.195312 3.890625 -2.6875 C 3.828125 -2.46875 3.785156 -2.144531 3.765625 -1.71875 C 3.742188 -1.300781 3.738281 -0.957031 3.75 -0.6875 C 3.75 -0.570312 3.753906 -0.488281 3.765625 -0.4375 C 3.804688 -0.332031 3.828125 -0.234375 3.828125 -0.140625 C 3.828125 -0.078125 3.8125 -0.03125 3.78125 0 C 3.75 0.03125 3.695312 0.046875 3.625 0.046875 Z M 1.90625 -1 C 2.050781 -1.03125 2.226562 -1.132812 2.4375 -1.3125 C 2.476562 -1.34375 2.570312 -1.414062 2.71875 -1.53125 C 2.875 -1.65625 2.988281 -1.78125 3.0625 -1.90625 C 3.132812 -2.039062 3.179688 -2.1875 3.203125 -2.34375 C 3.210938 -2.46875 3.195312 -2.566406 3.15625 -2.640625 C 3.125 -2.710938 3.066406 -2.785156 2.984375 -2.859375 C 2.910156 -2.898438 2.828125 -2.921875 2.734375 -2.921875 C 2.546875 -2.910156 2.378906 -2.832031 2.234375 -2.6875 C 2.054688 -2.507812 1.90625 -2.289062 1.78125 -2.03125 C 1.65625 -1.78125 1.5625 -1.488281 1.5 -1.15625 C 1.488281 -1.03125 1.554688 -0.96875 1.703125 -0.96875 C 1.785156 -0.976562 1.851562 -0.988281 1.90625 -1 Z M 1.90625 -1 "/></g></g></g><g fill="#5e17eb" fill-opacity="1"><g transform="translate(72.812636, 68.940529)"><g><path d="M 2.75 -0.453125 C 2.59375 -0.296875 2.394531 -0.210938 2.15625 -0.203125 C 1.988281 -0.203125 1.828125 -0.238281 1.671875 -0.3125 C 1.515625 -0.394531 1.390625 -0.5 1.296875 -0.625 C 1.203125 -0.726562 1.128906 -0.847656 1.078125 -0.984375 C 1.035156 -1.117188 1.007812 -1.285156 1 -1.484375 C 1 -1.546875 1 -1.675781 1 -1.875 C 1.007812 -2.125 1.082031 -2.382812 1.21875 -2.65625 C 1.351562 -2.925781 1.523438 -3.164062 1.734375 -3.375 C 1.941406 -3.59375 2.144531 -3.75 2.34375 -3.84375 C 2.445312 -3.914062 2.539062 -3.953125 2.625 -3.953125 C 2.664062 -3.953125 2.707031 -3.945312 2.75 -3.9375 C 2.800781 -3.9375 2.851562 -3.9375 2.90625 -3.9375 C 3.0625 -3.925781 3.175781 -3.90625 3.25 -3.875 C 3.332031 -3.84375 3.398438 -3.785156 3.453125 -3.703125 C 3.628906 -3.546875 3.722656 -3.359375 3.734375 -3.140625 C 3.710938 -2.984375 3.613281 -2.796875 3.4375 -2.578125 C 3.269531 -2.359375 3.0625 -2.179688 2.8125 -2.046875 C 2.6875 -2.003906 2.550781 -1.976562 2.40625 -1.96875 C 2.195312 -1.957031 2.03125 -2 1.90625 -2.09375 C 1.84375 -2.113281 1.796875 -2.125 1.765625 -2.125 C 1.703125 -2.113281 1.65625 -2.066406 1.625 -1.984375 C 1.59375 -1.898438 1.570312 -1.753906 1.5625 -1.546875 C 1.550781 -1.492188 1.550781 -1.425781 1.5625 -1.34375 C 1.570312 -1 1.691406 -0.816406 1.921875 -0.796875 C 2.078125 -0.765625 2.1875 -0.753906 2.25 -0.765625 C 2.332031 -0.765625 2.421875 -0.789062 2.515625 -0.84375 L 2.703125 -0.96875 C 2.742188 -0.988281 2.78125 -1.015625 2.8125 -1.046875 C 2.851562 -1.078125 2.878906 -1.109375 2.890625 -1.140625 C 2.898438 -1.148438 2.921875 -1.171875 2.953125 -1.203125 C 2.984375 -1.242188 3.007812 -1.269531 3.03125 -1.28125 C 3.050781 -1.289062 3.070312 -1.296875 3.09375 -1.296875 C 3.125 -1.296875 3.15625 -1.28125 3.1875 -1.25 C 3.21875 -1.21875 3.242188 -1.195312 3.265625 -1.1875 C 3.328125 -1.195312 3.34375 -1.15625 3.3125 -1.0625 C 3.28125 -0.976562 3.210938 -0.878906 3.109375 -0.765625 C 3.003906 -0.648438 2.882812 -0.546875 2.75 -0.453125 Z M 2.65625 -2.578125 C 2.769531 -2.628906 2.878906 -2.71875 2.984375 -2.84375 C 3.097656 -2.96875 3.148438 -3.066406 3.140625 -3.140625 C 3.140625 -3.222656 3.109375 -3.289062 3.046875 -3.34375 C 2.992188 -3.394531 2.914062 -3.414062 2.8125 -3.40625 C 2.726562 -3.40625 2.664062 -3.398438 2.625 -3.390625 C 2.53125 -3.359375 2.421875 -3.28125 2.296875 -3.15625 C 2.179688 -3.039062 2.078125 -2.921875 1.984375 -2.796875 C 1.898438 -2.671875 1.867188 -2.597656 1.890625 -2.578125 C 1.921875 -2.515625 2.050781 -2.488281 2.28125 -2.5 C 2.425781 -2.507812 2.550781 -2.535156 2.65625 -2.578125 Z M 2.65625 -2.578125 "/></g></g></g><g fill="#5e17eb" fill-opacity="1"><g transform="translate(76.061801, 68.812983)"><g><path d="M 1.609375 -0.015625 C 1.492188 -0.0664062 1.375 -0.132812 1.25 -0.21875 C 1.132812 -0.300781 1.054688 -0.378906 1.015625 -0.453125 C 1.015625 -0.460938 1.015625 -0.484375 1.015625 -0.515625 C 1.015625 -0.546875 1.023438 -0.566406 1.046875 -0.578125 C 1.066406 -0.585938 1.101562 -0.59375 1.15625 -0.59375 C 1.269531 -0.59375 1.445312 -0.585938 1.6875 -0.578125 C 1.84375 -0.585938 2.007812 -0.613281 2.1875 -0.65625 C 2.363281 -0.695312 2.460938 -0.738281 2.484375 -0.78125 C 2.503906 -0.78125 2.515625 -0.785156 2.515625 -0.796875 C 2.515625 -0.804688 2.488281 -0.835938 2.4375 -0.890625 C 2.425781 -0.890625 2.394531 -0.898438 2.34375 -0.921875 C 2.300781 -0.953125 2.273438 -0.96875 2.265625 -0.96875 C 2.265625 -0.988281 2.226562 -1.019531 2.15625 -1.0625 C 2.09375 -1.101562 2.023438 -1.140625 1.953125 -1.171875 C 1.753906 -1.316406 1.613281 -1.425781 1.53125 -1.5 C 1.445312 -1.582031 1.414062 -1.640625 1.4375 -1.671875 L 1.4375 -1.71875 C 1.394531 -1.71875 1.34375 -1.78125 1.28125 -1.90625 C 1.21875 -2.03125 1.179688 -2.148438 1.171875 -2.265625 C 1.171875 -2.390625 1.210938 -2.5625 1.296875 -2.78125 C 1.390625 -3 1.503906 -3.171875 1.640625 -3.296875 C 1.816406 -3.484375 2.050781 -3.675781 2.34375 -3.875 C 2.632812 -4.082031 2.867188 -4.21875 3.046875 -4.28125 C 3.148438 -4.332031 3.257812 -4.363281 3.375 -4.375 C 3.476562 -4.375 3.570312 -4.351562 3.65625 -4.3125 C 3.738281 -4.257812 3.820312 -4.1875 3.90625 -4.09375 C 4 -4 4.0625 -3.910156 4.09375 -3.828125 C 4.09375 -3.679688 4.078125 -3.535156 4.046875 -3.390625 C 4.023438 -3.253906 3.984375 -3.1875 3.921875 -3.1875 C 3.921875 -3.1875 3.910156 -3.179688 3.890625 -3.171875 C 3.878906 -3.171875 3.878906 -3.15625 3.890625 -3.125 C 3.890625 -3.101562 3.875 -3.066406 3.84375 -3.015625 C 3.820312 -2.972656 3.785156 -2.929688 3.734375 -2.890625 C 3.597656 -2.773438 3.484375 -2.71875 3.390625 -2.71875 C 3.316406 -2.707031 3.265625 -2.738281 3.234375 -2.8125 C 3.222656 -2.820312 3.210938 -2.84375 3.203125 -2.875 C 3.191406 -2.90625 3.175781 -2.921875 3.15625 -2.921875 C 3.144531 -2.921875 3.128906 -2.929688 3.109375 -2.953125 C 3.097656 -2.972656 3.09375 -3.003906 3.09375 -3.046875 C 3.09375 -3.066406 3.097656 -3.085938 3.109375 -3.109375 C 3.117188 -3.128906 3.128906 -3.144531 3.140625 -3.15625 C 3.171875 -3.15625 3.226562 -3.234375 3.3125 -3.390625 C 3.40625 -3.554688 3.453125 -3.664062 3.453125 -3.71875 C 3.453125 -3.757812 3.445312 -3.78125 3.4375 -3.78125 C 3.425781 -3.789062 3.394531 -3.796875 3.34375 -3.796875 C 2.832031 -3.546875 2.515625 -3.351562 2.390625 -3.21875 C 2.367188 -3.175781 2.351562 -3.148438 2.34375 -3.140625 C 2.332031 -3.128906 2.316406 -3.125 2.296875 -3.125 C 2.296875 -3.1875 2.128906 -2.953125 1.796875 -2.421875 C 1.785156 -2.410156 1.769531 -2.367188 1.75 -2.296875 C 1.738281 -2.234375 1.734375 -2.179688 1.734375 -2.140625 C 1.722656 -2.085938 1.71875 -2.054688 1.71875 -2.046875 C 1.71875 -2.023438 1.726562 -2 1.75 -1.96875 C 1.78125 -1.9375 1.816406 -1.90625 1.859375 -1.875 C 1.898438 -1.851562 1.941406 -1.820312 1.984375 -1.78125 C 2.335938 -1.53125 2.585938 -1.34375 2.734375 -1.21875 C 2.878906 -1.101562 2.960938 -1.003906 2.984375 -0.921875 C 3.085938 -0.785156 3.140625 -0.664062 3.140625 -0.5625 C 3.140625 -0.476562 3.109375 -0.40625 3.046875 -0.34375 C 2.992188 -0.28125 2.910156 -0.222656 2.796875 -0.171875 C 2.722656 -0.140625 2.597656 -0.101562 2.421875 -0.0625 C 2.242188 -0.03125 2.070312 -0.015625 1.90625 -0.015625 C 1.8125 -0.00390625 1.710938 -0.00390625 1.609375 -0.015625 Z M 1.609375 -0.015625 "/></g></g></g></svg>