<svg xmlns="http://www.w3.org/2000/svg" xmlns:xlink="http://www.w3.org/1999/xlink" width="1920" zoomAndPan="magnify" viewBox="0 0 1440 809.999993" height="1080" preserveAspectRatio="xMidYMid meet" version="1.0"><defs><clipPath id="377c92089d"><path d="M 0 50 L 1440 50 L 1440 760.675781 L 0 760.675781 Z M 0 50 " clip-rule="nonzero"/></clipPath></defs><rect x="-144" width="1728" fill="#ffffff" y="-80.999999" height="971.999992" fill-opacity="1"/><rect x="-144" width="1728" fill="#ffffff" y="-80.999999" height="971.999992" fill-opacity="1"/><g clip-path="url(#377c92089d)"><path fill="#fafafa" d="M -5.3125 179.867188 C 51.929688 122.929688 127.316406 89.792969 201.507812 88.949219 C 202.449219 88.9375 203.378906 88.933594 204.316406 88.933594 C 282.128906 88.933594 356.402344 125.503906 398.695312 184.816406 C 445.5 250.464844 452.066406 337.238281 458.421875 421.152344 C 459.660156 437.566406 460.945312 454.539062 462.511719 471.074219 C 471.898438 570.152344 505.433594 698.027344 611.894531 744.574219 C 636.105469 755.15625 662.839844 760.347656 690.921875 760.347656 C 745.996094 760.347656 806.257812 740.378906 862.839844 701.9375 C 900.933594 676.058594 935.058594 644.929688 968.058594 614.828125 C 995.003906 590.246094 1022.871094 564.828125 1052.203125 543.03125 C 1174.386719 452.242188 1327.320312 425.144531 1451.3125 472.320312 C 1461.183594 476.074219 1472.242188 471.117188 1476.007812 461.234375 C 1479.765625 451.351562 1474.804688 440.296875 1464.921875 436.539062 C 1395.972656 410.3125 1317.695312 404.46875 1238.554688 419.644531 C 1164.054688 433.933594 1091.714844 465.976562 1029.371094 512.300781 C 998.496094 535.246094 969.90625 561.324219 942.257812 586.546875 C 910.25 615.742188 877.160156 645.933594 841.332031 670.269531 C 766.839844 720.871094 686.8125 735.535156 627.226562 709.492188 C 537.835938 670.410156 509.039062 556.304688 500.625 467.460938 C 499.09375 451.289062 497.820312 434.5 496.589844 418.261719 C 489.84375 329.117188 482.867188 236.933594 429.863281 162.59375 C 379.902344 92.527344 292.1875 49.675781 201.074219 50.671875 C 117.007812 51.625 31.9375 88.820312 -32.3125 152.722656 C -39.808594 160.175781 -39.839844 172.296875 -32.386719 179.789062 C -24.925781 187.285156 -12.8125 187.316406 -5.320312 179.863281 Z M -5.3125 179.867188 " fill-opacity="1" fill-rule="nonzero"/></g></svg>